<?xml version="1.0"?>
<svg xmlns="http://www.w3.org/2000/svg" xmlns:xlink="http://www.w3.org/1999/xlink" xmlns:svgjs="http://svgjs.com/svgjs" version="1.1" width="512" height="512" x="0" y="0" viewBox="0 0 512 512" style="enable-background:new 0 0 512 512" xml:space="preserve" class=""><g><g xmlns="http://www.w3.org/2000/svg"><path d="m464 285.29v-221.79c0-35.014-28.486-63.5-63.5-63.5s-63.5 28.486-63.5 63.5v16.874c-13.029 2.155-23 13.495-23 27.126v5c0 6.893 5.607 12.5 12.5 12.5h65c6.893 0 12.5-5.607 12.5-12.5v-5c0-13.28-9.463-24.391-22-26.947v-17.053c0-10.201 8.299-18.5 18.5-18.5s18.5 8.299 18.5 18.5v157.5c0 4.142 3.357 7.5 7.5 7.5s7.5-3.358 7.5-7.5v-157.5c0-18.472-15.028-33.5-33.5-33.5s-33.5 15.028-33.5 33.5v16.5h-15v-16.5c0-26.743 21.757-48.5 48.5-48.5s48.5 21.757 48.5 48.5v220.5h-15v-28c0-4.142-3.357-7.5-7.5-7.5s-7.5 3.358-7.5 7.5v28h-15.015c-.324-19.271-15.817-34.915-34.825-35-3.62-.009-7.169.515-10.584 1.581-7.813-14.393-23.118-23.581-39.576-23.581-6.89 0-13.703 1.588-19.849 4.609-8.405-12.323-22.122-19.609-37.151-19.609-9.424 0-18.372 2.855-26 8.277-7.627-5.422-16.575-8.277-26-8.277-15.029 0-28.747 7.287-37.151 19.609-6.146-3.021-12.959-4.609-19.849-4.609-16.458 0-31.763 9.189-39.575 23.581-3.415-1.066-6.97-1.564-10.583-1.581-19.01.084-34.502 15.729-34.826 35h-12.516c-12.406 0-22.5 10.093-22.5 22.5v5c0 9.777 6.271 18.114 15 21.21v31.79c0 48.248 39.252 87.5 87.5 87.5h2.5v7.5c0 4.136-3.364 7.5-7.5 7.5h-7c-12.406 0-22.5 10.093-22.5 22.5s10.094 22.5 22.5 22.5h12c26.191 0 47.5-21.309 47.5-47.5v-12.5h22c4.143 0 7.5-3.358 7.5-7.5s-3.357-7.5-7.5-7.5h-69.5c-39.977 0-72.5-32.523-72.5-72.5v-30.5h50v47.5c0 9.649 7.851 17.5 17.5 17.5h45c9.649 0 17.5-7.851 17.5-17.5v-47.5h256v30.5c0 39.977-32.523 72.5-72.5 72.5h-136.5c-4.143 0-7.5 3.358-7.5 7.5s3.357 7.5 7.5 7.5h89v12.5c0 26.191 21.309 47.5 47.5 47.5h12c12.406 0 22.5-10.093 22.5-22.5s-10.094-22.5-22.5-22.5h-7c-4.136 0-7.5-3.364-7.5-7.5v-7.5h2.5c48.248 0 87.5-39.252 87.5-87.5v-31.79c8.729-3.096 15-11.432 15-21.21v-5c0-9.777-6.271-18.114-15-21.21zm-75-177.79v2.5h-60v-2.5c0-6.893 5.607-12.5 12.5-12.5h35c6.893 0 12.5 5.607 12.5 12.5zm-221 357c0 17.92-14.579 32.5-32.5 32.5h-12c-4.136 0-7.5-3.364-7.5-7.5s3.364-7.5 7.5-7.5h7c12.406 0 22.5-10.093 22.5-22.5v-7.5h15zm213.5 17.5h7c4.136 0 7.5 3.364 7.5 7.5s-3.364 7.5-7.5 7.5h-12c-17.921 0-32.5-14.58-32.5-32.5v-12.5h15v7.5c0 12.407 10.094 22.5 22.5 22.5zm-278.591-218h.095c2.478 0 4.894.447 7.18 1.328 6.018 2.317 12.95-.464 15.781-6.335 4.976-10.323 15.588-16.993 27.035-16.993 5.122 0 10.175 1.313 14.615 3.797 5.889 3.294 13.247 1.373 16.748-4.375 5.5-9.03 15.084-14.422 25.637-14.422 6.702 0 13.043 2.166 18.333 6.263 4.517 3.499 10.821 3.497 15.332.001 5.292-4.098 11.633-6.264 18.335-6.264 10.553 0 20.137 5.392 25.637 14.423 3.502 5.748 10.861 7.671 16.749 4.374 4.439-2.484 9.492-3.797 14.614-3.797 11.447 0 22.059 6.67 27.035 16.993 2.83 5.872 9.763 8.651 15.781 6.335 2.287-.881 4.702-1.328 7.181-1.328h.095c10.777.047 19.559 8.966 19.878 20h-305.94c.319-11.034 9.102-19.952 19.879-20zm-47.409 55c-4.136 0-7.5-3.364-7.5-7.5v-5c0-4.136 3.364-7.5 7.5-7.5h57.5v20zm120 65h-45c-1.379 0-2.5-1.122-2.5-2.5v-82.5h50v82.5c0 1.378-1.121 2.5-2.5 2.5zm288.5-72.5c0 4.136-3.364 7.5-7.5 7.5h-263.5v-20h263.5c4.136 0 7.5 3.364 7.5 7.5z" fill="#29b99a" data-original="#000000" style=""/><path d="m236 193c12.406 0 22.5-10.093 22.5-22.5s-10.094-22.5-22.5-22.5-22.5 10.093-22.5 22.5 10.094 22.5 22.5 22.5zm0-30c4.136 0 7.5 3.364 7.5 7.5s-3.364 7.5-7.5 7.5-7.5-3.364-7.5-7.5 3.364-7.5 7.5-7.5z" fill="#29b99a" data-original="#000000" style=""/><path d="m146 216c12.406 0 22.5-10.093 22.5-22.5s-10.094-22.5-22.5-22.5-22.5 10.093-22.5 22.5 10.094 22.5 22.5 22.5zm0-30c4.136 0 7.5 3.364 7.5 7.5s-3.364 7.5-7.5 7.5-7.5-3.364-7.5-7.5 3.364-7.5 7.5-7.5z" fill="#29b99a" data-original="#000000" style=""/><path d="m326 216c12.406 0 22.5-10.093 22.5-22.5s-10.094-22.5-22.5-22.5-22.5 10.093-22.5 22.5 10.094 22.5 22.5 22.5zm0-30c4.136 0 7.5 3.364 7.5 7.5s-3.364 7.5-7.5 7.5-7.5-3.364-7.5-7.5 3.364-7.5 7.5-7.5z" fill="#29b99a" data-original="#000000" style=""/></g></g></svg>
