<?xml version="1.0"?>
<svg xmlns="http://www.w3.org/2000/svg" xmlns:xlink="http://www.w3.org/1999/xlink" xmlns:svgjs="http://svgjs.com/svgjs" version="1.1" width="512" height="512" x="0" y="0" viewBox="0 0 512 512" style="enable-background:new 0 0 512 512" xml:space="preserve"><g><path xmlns="http://www.w3.org/2000/svg" d="m512 270h-31.503906c-3.5625-54.453125-26.457032-105.15625-65.398438-144.097656-32.6875-32.6875-73.664062-54.0625-118.1875-62.199219 2.617188-5.699219 4.089844-12.03125 4.089844-18.703125 0-24.8125-20.1875-45-45-45s-45 20.1875-45 45c0 6.671875 1.472656 13.003906 4.085938 18.703125-44.519532 8.136719-85.496094 29.511719-118.1875 62.199219-38.9375 38.941406-61.835938 89.644531-65.394532 144.097656h-31.503906v30h36.730469l30 60h138.457031l-20 60h-34.1875v30h210v-30h-34.1875l-20-60h138.457031l30-60h36.730469zm-271-225c0-8.269531 6.730469-15 15-15s15 6.730469 15 15-6.730469 15-15 15-15-6.730469-15-15zm15 45c102.476562 0 186.742188 79.457031 194.429688 180h-388.859376c7.6875-100.542969 91.953126-180 194.429688-180zm39.1875 330h-78.375l20-60h38.375zm131.542969-90h-341.460938l-15-30h371.460938zm0 0" fill="#29b99a" data-original="#000000" style=""/></g></svg>
