<?xml version="1.0"?>
<svg xmlns="http://www.w3.org/2000/svg" xmlns:xlink="http://www.w3.org/1999/xlink" xmlns:svgjs="http://svgjs.com/svgjs" version="1.1" width="512" height="512" x="0" y="0" viewBox="0 0 512 512" style="enable-background:new 0 0 512 512" xml:space="preserve" class=""><g><g xmlns="http://www.w3.org/2000/svg"><g><path d="m505.312 318.575-46.118-16.184c-4.788-1.677-10.072.49-12.297 5.047l-7.612 15.585-22.302-9.337c-3.319-10.514-7.71-19.325-12.734-26.716h60.971.09c10.94 0 21.438-4.643 28.804-12.738l7.411-8.146c3.716-4.085 3.418-10.41-.667-14.126-4.086-3.716-10.41-3.419-14.126.667l-7.411 8.146c-1.592 1.75-3.497 3.147-5.584 4.183-2.725-16.004-10.311-46.58-30.896-77.341-17.206-25.711-39.934-46.193-67.551-60.876-31.745-16.878-69.978-26.008-113.75-27.208v-17.035c14.265-3.046 24.998-15.75 24.998-30.92v-2.393c0-17.435-14.174-31.619-31.597-31.619h-6.8c-17.423 0-31.597 14.184-31.597 31.619v2.393c0 15.17 10.733 27.873 24.997 30.919v17.03c-26.021.716-50.218 4.239-72.047 10.514-5.308 1.525-8.375 7.065-6.849 12.373 1.525 5.308 7.065 8.372 12.373 6.849 22.806-6.555 48.551-9.878 76.522-9.878 80.282 0 138.89 26.456 174.194 78.631 18.277 27.013 25.365 54.407 28.014 68.956h-68.303c-14.788-11.333-33.115-17.47-51.6-18.838-3.437-.254-6.891-.349-10.336-.23-1.285.043-87.093.151-87.093.151-12.465 0-24.073 7.554-29.175 18.917h-88.371-69.527c3.651-19.905 15.646-63.835 53.258-98.25 4.075-3.729 4.355-10.054.627-14.128s-10.054-4.356-14.128-.627c-43.184 39.512-56.052 88.976-59.773 110.985-2.467-1.244-4.663-3.032-6.423-5.294l-5.012-6.44c-3.393-4.359-9.676-5.143-14.033-1.751-4.359 3.392-5.143 9.675-1.751 14.033l5.011 6.44c7.433 9.554 18.635 15.033 30.735 15.033h51.134c-1.588 3.854-2.421 8.018-2.421 12.31 0 13.405 8.435 25.57 20.994 30.273l17.216 6.438c.421.157.852.286 1.29.385 5.5 1.249 11.593 2.675 18.142 4.208 40.546 9.492 96.077 22.492 140.35 24.184 15.315.585 30.341 4.351 44.048 11.215l68.148 34.122-9.14 18.714c-1.166 2.386-1.334 5.137-.469 7.647s2.693 4.573 5.081 5.734l105.4 51.25c6.549 3.185 14.373-1.761 14.373-8.993v-156.447c0-4.246-2.681-8.03-6.688-9.436zm-268.772-266.998v-2.393c0-6.407 5.203-11.619 11.597-11.619h6.8c6.395 0 11.597 5.212 11.597 11.619v2.393c0 6.407-5.203 11.619-11.597 11.619h-6.8c-6.394-.001-11.597-5.213-11.597-11.619zm85.827 300.09c-11.907-4.143-24.452-6.404-37.044-6.885-42.351-1.619-96.799-14.365-136.555-23.672-6.336-1.483-12.249-2.867-17.616-4.088l-16.582-6.201c-5.202-1.947-8.524-7.355-7.932-12.873.661-6.163 6.035-10.978 12.227-10.978h86.33c1.294 5.893 4.24 11.31 8.608 15.694 6.036 6.042 14.064 9.37 22.604 9.37h81.191c3.079 0 5.987-1.418 7.882-3.846 1.896-2.427 2.566-5.592 1.819-8.58v-.002c-1.113-4.452-5.113-7.575-9.702-7.575h-81.187c-6.527 0-11.964-5.471-11.964-11.991 0-6.482 5.462-11.982 11.96-11.982h84.712c15.529 0 30.327 1.844 44.199 9.585 17.478 9.752 28.593 27.029 33.76 46.048.122.449.277.893.46 1.32 1.023 2.387 2.934 4.283 5.33 5.285l25.62 10.726-24.957 51.109-67.971-34.033c-5.053-2.53-10.161-4.693-15.192-6.431zm169.633 116.808-82.018-39.88 9.09-18.611.191-.392 41.701-85.383 31.036 10.891z" fill="#29b99a" data-original="#000000" style="" class=""/><path d="m131.92 145.871c9.561 0 13.542-12.678 5.752-18.177-7.372-5.203-17.617 1.774-15.458 10.554 1.086 4.414 5.153 7.623 9.706 7.623z" fill="#29b99a" data-original="#000000" style="" class=""/></g></g></g></svg>
