<?xml version="1.0"?>
<svg xmlns="http://www.w3.org/2000/svg" xmlns:xlink="http://www.w3.org/1999/xlink" xmlns:svgjs="http://svgjs.com/svgjs" version="1.1" width="512" height="512" x="0" y="0" viewBox="0 0 512.615 512.615" style="enable-background:new 0 0 512 512" xml:space="preserve" class=""><g><g xmlns="http://www.w3.org/2000/svg"><g><g><path d="m256.312 335c-25.916 0-47-21.084-47-47s21.084-47 47-47 47 21.084 47 47-21.084 47-47 47zm0-64c-9.374 0-17 7.626-17 17s7.626 17 17 17 17-7.626 17-17-7.626-17-17-17z" fill="#29b99a" data-original="#222221" style="" class=""/></g><g><path d="m337.77 222.541c-3.839 0-7.678-1.464-10.606-4.394-39.069-39.068-102.636-39.067-141.704 0-5.857 5.858-15.355 5.858-21.213 0s-5.858-15.355 0-21.213c50.765-50.765 133.364-50.765 184.13 0 5.858 5.857 5.858 15.355 0 21.213-2.93 2.93-6.769 4.394-10.607 4.394z" fill="#29b99a" data-original="#222221" style="" class=""/></g><g><path d="m120.547 168.236c-3.839 0-7.678-1.464-10.606-4.394-5.858-5.858-5.858-15.355 0-21.213 39.097-39.097 91.08-60.629 146.371-60.629s107.274 21.532 146.371 60.629c5.858 5.858 5.858 15.355 0 21.213-5.857 5.857-15.355 5.858-21.213 0-33.431-33.43-77.88-51.842-125.158-51.842s-91.727 18.412-125.158 51.842c-2.929 2.929-6.768 4.394-10.607 4.394z" fill="#29b99a" data-original="#222221" style="" class=""/></g><g><path d="m55.943 512.197c-8.284 0-15-6.716-15-15v-113.158c0-8.284 6.716-15 15-15h45.864c8.284 0 15 6.716 15 15s-6.716 15-15 15h-30.864v98.158c0 8.284-6.715 15-15 15z" fill="#29b99a" data-original="#222221" style="" class=""/></g><g><path d="m98.164 454.547h-42.22c-8.284 0-15-6.716-15-15s6.716-15 15-15h42.22c8.284 0 15 6.716 15 15s-6.716 15-15 15z" fill="#29b99a" data-original="#222221" style="" class=""/></g><g><path d="m229.696 512.615c-4.161 0-8.301-1.721-11.266-5.09l-47.884-54.407c-5.473-6.219-4.869-15.697 1.35-21.17 6.219-5.475 15.697-4.869 21.17 1.35l47.884 54.407c5.473 6.219 4.869 15.697-1.35 21.17-2.849 2.509-6.384 3.74-9.904 3.74z" fill="#29b99a" data-original="#222221" style="" class=""/></g><g><path d="m168.06 512.615c-8.284 0-15-6.716-15-15v-113.993c0-8.284 6.716-15 15-15s15 6.716 15 15v113.993c0 8.284-6.716 15-15 15z" fill="#29b99a" data-original="#222221" style="" class=""/></g><g><path d="m168.305 458.004c-8.24 0-14.946-6.653-14.998-14.905-.113-17.829-.123-23.022-.141-32.449-.012-5.903-.026-13.533-.071-26.978-.013-3.987 1.562-7.815 4.376-10.639s6.637-4.411 10.624-4.411h30.292c25.531 0 46.302 20.019 46.302 44.625s-20.771 44.626-46.302 44.626c-8.267 0-29.774.129-29.991.131-.029 0-.06 0-.091 0zm14.836-59.382c.013 4.961.02 8.726.026 11.97.012 6.031.02 10.321.054 17.332 5.676-.027 11.617-.051 15.167-.051 8.837 0 16.302-6.698 16.302-14.626s-7.465-14.625-16.302-14.625z" fill="#29b99a" data-original="#222221" style="" class=""/></g><g><path d="m343.672 512.094h-47.594c-8.284 0-15-6.716-15-15v-112.952c0-8.284 6.716-15 15-15h47.594c8.284 0 15 6.716 15 15s-6.716 15-15 15h-32.594v82.952h32.594c8.284 0 15 6.716 15 15s-6.716 15-15 15z" fill="#29b99a" data-original="#222221" style="" class=""/></g><g><path d="m340.162 455.618h-44.084c-8.284 0-15-6.716-15-15s6.716-15 15-15h44.084c8.284 0 15 6.716 15 15s-6.716 15-15 15z" fill="#29b99a" data-original="#222221" style="" class=""/></g><g><path d="m456.672 512.094h-47.594c-8.284 0-15-6.716-15-15v-112.952c0-8.284 6.716-15 15-15h47.594c8.284 0 15 6.716 15 15s-6.716 15-15 15h-32.594v82.952h32.594c8.284 0 15 6.716 15 15s-6.716 15-15 15z" fill="#29b99a" data-original="#222221" style="" class=""/></g><g><path d="m453.162 455.618h-44.084c-8.284 0-15-6.716-15-15s6.716-15 15-15h44.084c8.284 0 15 6.716 15 15s-6.716 15-15 15z" fill="#29b99a" data-original="#222221" style="" class=""/></g><g><path d="m448.645 110.667c-3.839 0-7.678-1.464-10.606-4.394-49.187-49.185-113.726-76.273-181.728-76.273s-132.54 27.088-181.726 76.273c-5.857 5.858-15.355 5.858-21.213 0s-5.858-15.355 0-21.213c54.852-54.852 126.924-85.06 202.939-85.06s148.087 30.208 202.94 85.061c5.858 5.858 5.858 15.355 0 21.213-2.929 2.929-6.768 4.393-10.606 4.393z" fill="#29b99a" data-original="#222221" style="" class=""/></g></g></g></g></svg>
