<?xml version="1.0"?>
<svg xmlns="http://www.w3.org/2000/svg" xmlns:xlink="http://www.w3.org/1999/xlink" xmlns:svgjs="http://svgjs.com/svgjs" version="1.1" width="512" height="512" x="0" y="0" viewBox="0 0 512 512" style="enable-background:new 0 0 512 512" xml:space="preserve" class=""><g>
<g xmlns="http://www.w3.org/2000/svg">
	<g>
		<path d="M511.818,458.808c-0.122-0.895-3.057-22.187-9.866-43.814C490.568,378.834,473.762,360.5,452,360.5H276v-40h176    c11.046,0,20-8.954,20-20c0-11.046-8.954-20-20-20H80v-36c0-42.451,14.759-69.699,46.445-85.752    C161.87,140.801,214.29,138.5,256,138.5c116.076,0,164.954,23.299,174.332,83.098c1.711,10.913,11.942,18.375,22.857,16.66    c10.912-1.711,18.371-11.945,16.66-22.857c-7.263-46.318-33.18-79.056-77.031-97.306C363.884,106.053,327.328,99.944,276,98.731    V70.5h17.001c11.046,0,20-8.954,20-20s-8.954-20-20-20h-74.002c-11.046,0-20,8.954-20,20s8.954,20,20,20H236v28.212    c-42.207,0.943-90.657,5.622-127.632,24.354C63.003,146.049,40,186.905,40,244.5v56c0,11.046,8.954,20,20,20h176v40H60    c-21.762,0-38.568,18.335-49.952,54.494c-6.808,21.626-9.744,42.918-9.866,43.814c-0.776,5.722,0.958,11.499,4.755,15.848    S14.227,481.5,20,481.5h472.001c5.773,0,11.265-2.495,15.063-6.844C510.861,470.308,512.595,464.53,511.818,458.808z     M44.227,441.5c0.721-3.016,1.536-6.178,2.445-9.379c6.013-21.151,12.116-29.571,14.576-31.621h389.505    c2.46,2.05,8.563,10.471,14.576,31.621c0.909,3.201,1.723,6.362,2.445,9.379H44.227z" fill="#29b99a" data-original="#000000" style=""/>
	</g>
</g>
<g xmlns="http://www.w3.org/2000/svg">
</g>
<g xmlns="http://www.w3.org/2000/svg">
</g>
<g xmlns="http://www.w3.org/2000/svg">
</g>
<g xmlns="http://www.w3.org/2000/svg">
</g>
<g xmlns="http://www.w3.org/2000/svg">
</g>
<g xmlns="http://www.w3.org/2000/svg">
</g>
<g xmlns="http://www.w3.org/2000/svg">
</g>
<g xmlns="http://www.w3.org/2000/svg">
</g>
<g xmlns="http://www.w3.org/2000/svg">
</g>
<g xmlns="http://www.w3.org/2000/svg">
</g>
<g xmlns="http://www.w3.org/2000/svg">
</g>
<g xmlns="http://www.w3.org/2000/svg">
</g>
<g xmlns="http://www.w3.org/2000/svg">
</g>
<g xmlns="http://www.w3.org/2000/svg">
</g>
<g xmlns="http://www.w3.org/2000/svg">
</g>
</g></svg>
