<svg xmlns="http://www.w3.org/2000/svg" viewBox="0 0 384.8 134.05"><defs><style>.cls-1{fill:#1bbc9b;}</style></defs><g id="Layer_2" data-name="Layer 2"><g id="Layer_1-2" data-name="Layer 1"><path class="cls-1" d="M32.47,131.75a8.37,8.37,0,0,1-8.38-8.37V19.06H8.38a8.38,8.38,0,0,1,0-16.76H32.47a8.37,8.37,0,0,1,8.37,8.38v112.7A8.37,8.37,0,0,1,32.47,131.75Z"/><path class="cls-1" d="M305.73,126.89A8.38,8.38,0,0,1,298,115.27L342.16,10a8.38,8.38,0,0,1,15.45,6.48L313.45,121.75a8.36,8.36,0,0,1-7.72,5.14Z"/><path class="cls-1" d="M297.27,62.11c-15.39,0-27.9-13.93-27.9-31S281.88,0,297.27,0s27.89,13.93,27.89,31.06S312.65,62.11,297.27,62.11Zm0-45.35c-6,0-11.14,6.55-11.14,14.3s5.1,14.29,11.14,14.29,11.13-6.41,11.13-14.29S303.3,16.76,297.27,16.76Z"/><path class="cls-1" d="M356.91,134.05C341.53,134.05,329,120.12,329,103s12.51-31,27.89-31S384.8,85.88,384.8,103,372.29,134.05,356.91,134.05Zm0-45.34c-6,0-11.13,6.54-11.13,14.29s5.09,14.3,11.13,14.3,11.14-6.55,11.14-14.3S363,88.71,356.91,88.71Z"/><path class="cls-1" d="M209.61,134.05a41,41,0,0,1-41-41V41a41,41,0,1,1,81.93,0V93.09A41,41,0,0,1,209.61,134.05Zm0-117.29A24.24,24.24,0,0,0,185.4,41V93.09a24.21,24.21,0,1,0,48.42,0V41a24.23,24.23,0,0,0-24.21-24.21Z"/><path class="cls-1" d="M105.34,134.05a41,41,0,0,1-41-41V41a41,41,0,0,1,81.94,0V93.09A41,41,0,0,1,105.34,134.05Zm0-117.29A24.24,24.24,0,0,0,81.13,41V93.09a24.21,24.21,0,0,0,48.42,0V41a24.24,24.24,0,0,0-24.21-24.21Z"/></g></g></svg>