<?xml version="1.0"?>
<svg xmlns="http://www.w3.org/2000/svg" xmlns:xlink="http://www.w3.org/1999/xlink" xmlns:svgjs="http://svgjs.com/svgjs" version="1.1" width="512" height="512" x="0" y="0" viewBox="0 0 512 512" style="enable-background:new 0 0 512 512" xml:space="preserve"><g><g xmlns="http://www.w3.org/2000/svg"><path d="m183.667 75h150.027v30h-150.027z" fill="#212529" data-original="#000000" style=""/><path d="m512 285.62c0-74.957-47.107-139.108-113.267-164.433v-121.187h-275.24-.013l-123.48 123.703v.354 387.943h398.733v-61.945c66.16-25.326 113.267-89.477 113.267-164.435zm-390.59-241.015v77.001h-76.643zm247.323 437.395h-338.733v-330.394h121.41v-121.606h217.323v82.686c-10.61-2.004-21.549-3.065-32.733-3.065-36.569 0-70.566 11.215-98.74 30.38h-53.593v30h19.751c-9.276 10.624-17.299 22.367-23.837 35h-114.542v30h102.392c-3.381 11.239-5.665 22.946-6.73 35l-95.662-.001v30h95.552c.979 12.048 3.178 23.754 6.471 35h-102.022v30h113.907c6.401 12.613 14.278 24.355 23.401 35h-137.309v30h170.432c28.52 19.918 63.181 31.621 100.529 31.621 11.184 0 22.123-1.061 32.733-3.065zm-32.733-50.379c-80.505 0-146-65.496-146-146.001 0-80.504 65.495-145.999 146-145.999s146 65.495 146 145.999c0 80.505-65.495 146.001-146 146.001z" fill="#212529" data-original="#000000" style=""/><path d="m390.321 192.617-75.804 75.803-37.448-37.449-63.64 63.639 101.088 101.088 139.443-139.442zm-134.466 101.992 21.213-21.212 37.449 37.449 75.804-75.803 21.212 21.213-97.016 97.015z" fill="#212529" data-original="#000000" style=""/></g></g></svg>
