<?xml version="1.0"?>
<svg xmlns="http://www.w3.org/2000/svg" xmlns:xlink="http://www.w3.org/1999/xlink" xmlns:svgjs="http://svgjs.com/svgjs" version="1.1" width="512" height="512" x="0" y="0" viewBox="0 0 512 512" style="enable-background:new 0 0 512 512" xml:space="preserve" class=""><g><g xmlns="http://www.w3.org/2000/svg" id="XMLID_1_"><g id="XMLID_1090_"><path id="XMLID_1098_" d="m512 170c0-27.57-22.43-50-50-50h-68v-50c0-27.57-22.43-50-50-50h-176c-27.57 0-50 22.43-50 50v50h-68c-27.57 0-50 22.43-50 50v272c0 27.57 22.43 50 50 50h412c27.57 0 50-22.43 50-50zm-344-130h176c14.488 0 26.609 10.323 29.396 24h-234.792c2.787-13.677 14.908-24 29.396-24zm-118 100h161.127c5.522 0 10-4.477 10-10s-4.478-10-10-10h-73.127v-36h236v36h-72.873c-5.523 0-10 4.477-10 10s4.477 10 10 10h160.873c16.542 0 30 13.458 30 30v77.753l-236 71.465-236-71.465v-77.753c0-16.542 13.458-30 30-30zm412 332h-412c-16.542 0-30-13.458-30-30v-173.35l233.102 70.587c.945.286 1.922.429 2.898.429s1.953-.143 2.898-.429l233.102-70.586v173.349c0 16.542-13.458 30-30 30z" fill="#808080" data-original="#000000" style="" class=""/><path id="XMLID_1119_" d="m208 258h96c5.522 0 10-4.477 10-10v-48c0-5.523-4.478-10-10-10h-96c-5.523 0-10 4.477-10 10v48c0 5.523 4.477 10 10 10zm10-48h76v28h-76z" fill="#808080" data-original="#000000" style="" class=""/><path id="XMLID_1126_" d="m256.13 140c2.63 0 5.21-1.07 7.07-2.93 1.859-1.86 2.93-4.44 2.93-7.07s-1.07-5.21-2.93-7.07-4.44-2.93-7.07-2.93-5.21 1.07-7.08 2.93c-1.86 1.86-2.92 4.44-2.92 7.07s1.06 5.21 2.92 7.07c1.87 1.86 4.45 2.93 7.08 2.93z" fill="#808080" data-original="#000000" style="" class=""/></g></g></g></svg>
