<?xml version="1.0"?>
<svg xmlns="http://www.w3.org/2000/svg" xmlns:xlink="http://www.w3.org/1999/xlink" xmlns:svgjs="http://svgjs.com/svgjs" version="1.1" width="512" height="512" x="0" y="0" viewBox="0 0 512 512" style="enable-background:new 0 0 512 512" xml:space="preserve" class=""><g><linearGradient xmlns="http://www.w3.org/2000/svg" id="SVGID_1_" gradientUnits="userSpaceOnUse" x1="256" x2="256" y1="496" y2="16"><stop stop-opacity="1" stop-color="#00b59c" offset="0"/><stop stop-opacity="1" stop-color="#ffcc00" offset="0"/></linearGradient><g xmlns="http://www.w3.org/2000/svg"><g><g><path d="m196 256h-121c-8.284 0-15 6.716-15 15v60c0 8.284 6.716 15 15 15h121c8.284 0 15-6.716 15-15v-60c0-8.284-6.716-15-15-15zm-15 60h-91v-30h91zm-75 90h-31c-8.284 0-15 6.716-15 15s6.716 15 15 15h31c8.284 0 15-6.716 15-15s-6.716-15-15-15zm90 0h-30c-8.284 0-15 6.716-15 15s6.716 15 15 15h30c8.284 0 15-6.716 15-15s-6.716-15-15-15zm90 0h-30c-8.284 0-15 6.716-15 15s6.716 15 15 15h30c8.284 0 15-6.716 15-15s-6.716-15-15-15zm60 0c-8.284 0-15 6.716-15 15s6.716 15 15 15h30c8.284 0 15-6.716 15-15s-6.716-15-15-15zm30-390c-74.439 0-135 60.561-135 135 0 15.772 2.728 30.918 7.722 45h-233.722c-8.284 0-15 6.716-15 15v270c0 8.284 6.716 15 15 15h421c8.284 0 15-6.716 15-15v-217.442c36.732-24.197 61-65.614 61-112.558 0-74.439-61.009-135-136-135zm45 450h-391v-240h233.806c24.247 36.154 65.487 60 112.194 60 15.765 0 30.908-2.686 45-7.605zm-45-210c-57.897 0-105-47.103-105-105s47.103-105 105-105c58.449 0 106 47.103 106 105 0 57.494-47.216 105-106 105zm60-120h-45v-45c0-8.284-6.716-15-15-15s-15 6.716-15 15v45h-45c-8.284 0-15 6.716-15 15s6.716 15 15 15h45v45c0 8.284 6.716 15 15 15s15-6.716 15-15v-45h45c8.284 0 15-6.716 15-15s-6.716-15-15-15z" fill="url(#SVGID_1_)" data-original="url(#SVGID_1_)" style=""/></g></g></g></g></svg>
