<?xml version="1.0"?>
<svg xmlns="http://www.w3.org/2000/svg" xmlns:xlink="http://www.w3.org/1999/xlink" xmlns:svgjs="http://svgjs.com/svgjs" version="1.1" width="512" height="512" x="0" y="0" viewBox="0 0 512.035 512.035" style="enable-background:new 0 0 512 512" xml:space="preserve" class=""><g><g xmlns="http://www.w3.org/2000/svg"><g><g><path d="m160.938 189.601c-11.886-11.801-28.402-13.402-43.102-4.188-2.691 1.688-5.094 3.702-7.148 5.968-2.055-2.266-4.458-4.28-7.149-5.968-14.699-9.216-31.215-7.611-43.102 4.187-6.738 6.688-10.64 16.118-10.704 25.87-.224 34.533 28.463 51.342 51.514 64.848 1.458.854 2.907 1.703 4.342 2.552 1.572.93 3.334 1.395 5.098 1.395s3.527-.465 5.1-1.396c1.434-.848 2.883-1.696 4.341-2.551 23.05-13.506 51.738-30.314 51.513-64.848-.062-9.751-3.964-19.181-10.703-25.869zm-48.392 77.775c-.621.364-1.24.727-1.857 1.089-.617-.362-1.237-.725-1.857-1.089-21.762-12.751-44.265-25.936-44.097-51.808.038-5.819 2.324-11.403 6.271-15.322 4.369-4.337 8.868-5.799 12.948-5.799 4.712 0 8.867 1.95 11.618 3.676 3.604 2.26 6.227 5.476 7.388 9.056 1.088 3.359 4.194 5.617 7.729 5.617s6.642-2.258 7.729-5.615c1.161-3.582 3.785-6.799 7.388-9.058 5.135-3.219 15.152-7.221 24.566 2.123v.001c3.947 3.918 6.233 9.502 6.271 15.321.167 25.872-22.336 39.057-44.097 51.808z" fill="#055755" data-original="#000000" style="" class=""/><path d="m434.645 237.731c-4.907-.187-9.652.923-13.859 3.154-2.033-12.939-13.003-23.19-26.191-23.659-5.356-.205-10.525 1.137-15.01 3.801-3.592-10.68-13.315-18.405-25.04-18.822-4.778-.166-9.399.865-13.522 2.979v-11.99c18.843-16.793 33.334-37.273 37.243-64.585.642.377 1.292.757 1.929 1.134 1.688.998 3.581 1.497 5.474 1.497s3.787-.499 5.476-1.498c1.857-1.098 3.734-2.198 5.623-3.305 30.849-18.075 65.814-38.562 65.533-81.953-.078-12.034-4.887-23.666-13.193-31.911-14.83-14.719-34.652-16.634-53.025-5.11-4.05 2.539-7.567 5.679-10.414 9.245-2.847-3.566-6.364-6.706-10.413-9.246-18.373-11.52-38.195-9.608-53.025 5.111-8.306 8.245-13.114 19.876-13.193 31.911-.014 2.176.076 4.284.24 6.344-7.903 1.503-15.868 4.67-23.653 9.551-7.214 4.524-13.225 10.387-17.641 17.099-4.416-6.712-10.427-12.574-17.641-17.099-26.012-16.309-54.046-13.634-74.991 7.16-11.775 11.688-18.592 28.193-18.704 45.283-.168 25.953 8.471 48.369 26.411 68.529 2.753 3.094 7.494 3.372 10.588.616 3.094-2.754 3.371-7.494.617-10.589-15.361-17.262-22.759-36.384-22.616-58.459.085-13.157 5.288-25.817 14.271-34.735 15.889-15.772 36.466-17.632 56.455-5.097 8.403 5.27 14.555 12.871 17.321 21.404 1.167 3.6 4.498 6.018 8.289 6.018s7.122-2.418 8.29-6.019c2.766-8.532 8.917-16.134 17.32-21.403 19.989-12.532 40.566-10.677 56.455 5.097 8.984 8.917 14.186 21.578 14.271 34.735.16 24.584-9.068 43.503-23.296 59.238v-18.416c0-7.537-2.988-14.572-8.413-19.808-5.423-5.233-12.557-7.953-20.109-7.699-14.628.52-26.528 13.075-26.528 27.963l-.173 59.23c-3.539 2.103-7.088 4.195-10.633 6.272-2.409 1.411-4.806 2.815-7.183 4.218-2.382-1.404-4.784-2.813-7.199-4.227-14.158-8.296-28.798-16.874-41.916-26.484-3.34-2.446-8.035-1.724-10.482 1.619-2.448 3.341-1.723 8.034 1.618 10.482 13.737 10.063 28.714 18.838 43.198 27.324 2.846 1.668 5.675 3.325 8.474 4.98 1.945 1.151 4.127 1.727 6.308 1.727s4.362-.575 6.307-1.727c2.793-1.651 5.618-3.307 8.458-4.971.995-.583 1.999-1.173 2.999-1.76l-.196 67.161-4.29-13.066c-.064-.194-.136-.386-.215-.574-5.054-11.988-16.726-19.734-29.736-19.734-4.725 0-9.308 1.959-12.572 5.375-3.265 3.415-5.015 8.081-4.801 12.801l2.495 55.244c.798 17.673 7.829 34.581 19.798 47.609l28.44 30.956c.103.112.209.221.318.326 3.764 3.627 5.922 8.705 5.922 13.933v11.361h-1.748c-8.282 0-15.021 6.738-15.021 15.021v39.719c0 8.282 6.738 15.021 15.021 15.021h31.523c4.142 0 7.5-3.357 7.5-7.5s-3.358-7.5-7.5-7.5l-31.544-.021.021-39.739 138.209.021-.021 39.739h-71.458c-4.142 0-7.5 3.357-7.5 7.5s3.358 7.5 7.5 7.5h71.458c8.282 0 15.021-6.738 15.021-15.021v-39.719c0-8.282-6.738-15.021-15.021-15.021h-1.858v-5.783c0-12.229 3.722-23.977 10.762-33.974l11.418-16.214c8.831-12.54 13.499-27.274 13.499-42.611v-77.97c-.001-15.164-11.653-27.458-26.529-27.989zm-74.03-170.193c-10.676-10.597-23.194-16.476-36.346-17.547-.157-1.757-.244-3.555-.232-5.41.053-8.103 3.246-15.889 8.76-21.362 5.491-5.45 11.737-8.192 18.349-8.192 5.218 0 10.664 1.709 16.14 5.143 5.097 3.197 8.819 7.778 10.479 12.899 1.113 3.433 4.288 5.74 7.901 5.741h.002c3.612 0 6.788-2.306 7.904-5.741 1.66-5.121 5.381-9.702 10.479-12.898 12.417-7.787 24.665-6.703 34.489 3.049 5.515 5.474 8.708 13.26 8.76 21.362.226 34.73-29.433 52.108-58.116 68.914-1.177.689-2.35 1.376-3.516 2.062-1.166-.686-2.339-1.372-3.516-2.062-.955-.559-1.91-1.123-2.866-1.684-.367-16.729-7.128-32.817-18.671-44.274zm85.558 276.155c0 12.229-3.722 23.977-10.762 33.975l-11.418 16.214c-8.831 12.538-13.499 27.273-13.499 42.61v5.783h-104.583v-11.361c0-9.198-3.766-18.138-10.339-24.564l-28.295-30.799c-9.588-10.437-15.22-23.98-15.859-38.138l-2.495-55.245c-.04-.888.396-1.483.66-1.759s.839-.739 1.729-.739c6.87 0 13.042 4.035 15.803 10.304l4.186 12.75c2.345 7.14 9.675 11.455 17.058 10.036 7.016-1.349 12.126-7.514 12.149-14.659l.465-143.878c0-6.93 5.411-12.761 12.062-12.997 3.44-.112 6.692 1.122 9.16 3.503 2.469 2.383 3.829 5.584 3.829 9.014l.032 145.943c0 4.143 3.358 7.5 7.5 7.5s7.5-3.357 7.5-7.5v-70.623c.161-3.182 1.485-6.133 3.796-8.364 2.467-2.382 5.725-3.604 9.16-3.503 6.651.236 12.062 6.067 12.062 12.997l.018 69.493c0 4.143 3.358 7.5 7.5 7.5s7.5-3.357 7.5-7.5v-55.306c.091-3.295 1.428-6.36 3.812-8.659 2.467-2.381 5.727-3.613 9.159-3.503 6.651.236 12.062 6.066 12.062 12.997l-.069 54.472c0 4.143 3.358 7.5 7.5 7.5s7.5-3.357 7.5-7.5c0 0 .069-34.119.069-34.447 0-3.43 1.36-6.631 3.829-9.014 2.467-2.382 5.726-3.634 9.159-3.503 6.651.237 12.062 6.068 12.062 12.998v77.972z" fill="#055755" data-original="#000000" style="" class=""/></g></g></g></g></svg>
