<?xml version="1.0"?>
<svg xmlns="http://www.w3.org/2000/svg" xmlns:xlink="http://www.w3.org/1999/xlink" xmlns:svgjs="http://svgjs.com/svgjs" version="1.1" width="512" height="512" x="0" y="0" viewBox="0 0 512 512" style="enable-background:new 0 0 512 512" xml:space="preserve"><g><g xmlns="http://www.w3.org/2000/svg"><path d="m63.613 167.307c1.66 0 3.319-.549 4.689-1.647 2.406-1.928 58.923-47.835 58.923-102.047.001-35.076-28.536-63.613-63.612-63.613s-63.613 28.537-63.613 63.613c0 54.211 56.517 100.119 58.923 102.047 1.37 1.098 3.03 1.647 4.69 1.647zm-48.613-103.694c0-26.805 21.808-48.613 48.613-48.613s48.613 21.808 48.613 48.613c0 24.204-14.264 47.289-26.229 62.393-8.568 10.815-17.236 19.217-22.382 23.876-13.016-11.793-48.615-47.594-48.615-86.269z" fill="#055755" data-original="#000000" style=""/><path d="m95.161 63.613c0-4.142-3.358-7.5-7.5-7.5s-7.5 3.358-7.5 7.5c0 9.125-7.423 16.548-16.548 16.548s-16.548-7.423-16.548-16.548 7.423-16.548 16.548-16.548c4.142 0 7.5-3.358 7.5-7.5s-3.358-7.5-7.5-7.5c-17.396 0-31.548 14.152-31.548 31.548s14.152 31.548 31.548 31.548 31.548-14.152 31.548-31.548z" fill="#055755" data-original="#000000" style=""/><path d="m448.387 312.629c-35.076 0-63.613 28.537-63.613 63.613 0 54.212 56.517 100.119 58.923 102.047 1.37 1.098 3.03 1.647 4.689 1.647s3.319-.549 4.689-1.647c2.408-1.928 58.925-47.835 58.925-102.047 0-35.076-28.537-63.613-63.613-63.613zm.001 149.883c-13.015-11.794-48.614-47.594-48.614-86.27 0-26.805 21.808-48.613 48.613-48.613s48.613 21.808 48.613 48.613c0 24.204-14.264 47.289-26.229 62.393-8.568 10.815-17.237 19.217-22.383 23.877z" fill="#055755" data-original="#000000" style=""/><path d="m472.436 368.742c-4.142 0-7.5 3.358-7.5 7.5 0 9.125-7.423 16.549-16.548 16.549s-16.548-7.424-16.548-16.549 7.423-16.548 16.548-16.548c4.142 0 7.5-3.358 7.5-7.5s-3.358-7.5-7.5-7.5c-17.396 0-31.548 14.152-31.548 31.548s14.152 31.549 31.548 31.549 31.548-14.153 31.548-31.549c0-4.142-3.358-7.5-7.5-7.5z" fill="#055755" data-original="#000000" style=""/><path d="m448.387 497h-116.234c-55.536 0-100.718-45.182-100.718-100.718s45.182-100.718 100.718-100.718h60.121c30.656 0 55.597-24.94 55.597-55.597s-24.94-55.597-55.597-55.597h-61.566c8.021-8.521 12.952-19.982 12.952-32.581 0-26.236-21.345-47.581-47.581-47.581-.343 0-.682.019-1.024.026l-6.022-33.123h7.046c4.142 0 7.5-3.358 7.5-7.5s-3.358-7.5-7.5-7.5h-11.225c-3.423 0-6.645 1.507-8.839 4.136-2.193 2.628-3.1 6.067-2.488 9.436l1.905 10.477h-49.606c-8.971 0-17.036 4.985-21.047 13.009l-6.62 13.24c-4.517-1.427-9.322-2.201-14.305-2.201-26.236 0-47.581 21.345-47.581 47.581 0 12.598 4.931 24.06 12.952 32.581h-85.612c-4.142 0-7.5 3.358-7.5 7.5s3.358 7.5 7.5 7.5h328.662c22.385 0 40.597 18.211 40.597 40.597s-18.211 40.597-40.597 40.597h-60.121c-63.807 0-115.718 51.911-115.718 115.718s51.91 115.718 115.717 115.718h116.234c4.142 0 7.5-3.358 7.5-7.5s-3.358-7.5-7.5-7.5zm-119.726-345.209c0 17.965-14.616 32.581-32.581 32.581s-32.58-14.617-32.58-32.581c0-13.326 8.046-24.803 19.531-29.845l5.67 31.187c.658 3.622 3.815 6.16 7.37 6.16.445 0 .897-.04 1.351-.123 4.075-.741 6.778-4.645 6.037-8.721l-5.672-31.194c17.175.891 30.874 15.143 30.874 32.536zm-110.465-51.913c1.455-2.909 4.379-4.717 7.631-4.717h52.334l2.136 11.75c-18.5 6.526-31.798 24.174-31.798 44.879 0 12.598 4.931 24.06 12.952 32.581h-42.969c8.021-8.521 12.952-19.982 12.952-32.581 0-15.904-7.851-30-19.873-38.645zm-13.462 26.925c5.306 4.441 9.176 10.538 10.821 17.488h-19.565zm-53.46 24.988c0-17.965 14.616-32.581 32.581-32.581 2.57 0 5.068.308 7.469.874l-14.177 28.353c-1.163 2.325-1.039 5.086.328 7.297s3.781 3.557 6.38 3.557h31.699c-3.398 14.36-16.316 25.081-31.699 25.081-17.965-.001-32.581-14.617-32.581-32.581z" fill="#055755" data-original="#000000" style=""/><path d="m199.887 71.113h16.032c4.142 0 7.5-3.358 7.5-7.5s-3.358-7.5-7.5-7.5h-16.032c-4.142 0-7.5 3.358-7.5 7.5s3.358 7.5 7.5 7.5z" fill="#055755" data-original="#000000" style=""/></g></g></svg>
