<?xml version="1.0"?>
<svg xmlns="http://www.w3.org/2000/svg" xmlns:xlink="http://www.w3.org/1999/xlink" xmlns:svgjs="http://svgjs.com/svgjs" version="1.1" width="512" height="512" x="0" y="0" viewBox="0 0 512 512" style="enable-background:new 0 0 512 512" xml:space="preserve" class=""><g>
<g xmlns="http://www.w3.org/2000/svg">
	<g>
		<path d="M502,61.613h-30V44.99c0-5.522-4.477-10-10-10H277.77c-8.417,0-16.079,3.29-21.77,8.651    c-5.69-5.361-13.353-8.651-21.77-8.651H50.004c-5.523,0-10,4.478-10,10v16.623H10c-5.523,0-10,4.478-10,10v369.37    c0,5.522,4.477,10,10,10h207.553c2.201,0,4.176,1.369,5.032,3.488c5.53,13.692,18.646,22.54,33.415,22.54    c14.769,0,27.885-8.848,33.415-22.54c0.856-2.119,2.832-3.488,5.032-3.488H502c5.523,0,10-4.478,10-10V71.613    C512,66.09,507.523,61.613,502,61.613z M266,66.759c0-6.489,5.28-11.77,11.77-11.77H452V391.01H277.77    c-4.156,0-8.128,0.805-11.77,2.263V66.759z M60.004,54.99H234.23c6.49,0,11.77,5.28,11.77,11.77v326.514    c-3.642-1.458-7.613-2.263-11.77-2.263H127.5v-57.496c0-5.522-4.477-10-10-10H60.004V54.99z M107.5,343.513v33.354L90.823,360.19    l-16.677-16.677H107.5z M60.004,357.656l33.354,33.354H60.004V357.656z M492,430.982H294.447c-10.396,0-19.65,6.279-23.576,15.998    c-2.461,6.093-8.298,10.03-14.871,10.03s-12.41-3.938-14.871-10.031c-3.926-9.718-13.18-15.997-23.576-15.997H20V81.613h20.004    V401.01c0,5.522,4.477,10,10,10H234.23c6.49,0,11.77,5.279,11.77,11.77v14.426c0,5.522,4.477,10,10,10s10-4.478,10-10V422.78    c0-6.49,5.28-11.77,11.77-11.77H462c5.523,0,10-4.478,10-10V81.613h20V430.982z" fill="#055755" data-original="#000000" style="" class=""/>
	</g>
</g>
<g xmlns="http://www.w3.org/2000/svg">
	<g>
		<path d="M359.973,90.025c-0.328-0.015-0.654-0.025-0.973-0.025c-0.319,0-0.645,0.01-0.973,0.025    c-46.971,0.526-85.024,38.876-85.024,85.963c-0.001,24.179,10.425,47.591,28.601,64.232c6.839,6.261,10.792,15.016,10.961,24.149    c-0.04,0.365-0.065,0.734-0.065,1.109V304v51.989c0,5.522,4.477,10,10,10h72.998c5.523,0,10-4.478,10-10V304v-38.522    c0-0.21-0.019-0.415-0.031-0.621c0.172-9.311,4.199-18.273,11.127-24.671c18.051-16.671,28.403-40.07,28.403-64.198    C444.997,128.902,406.943,90.551,359.973,90.025z M348.584,125.714c4.76-12.917,9.498-15.713,10.416-15.713    c0.918,0,5.656,2.796,10.416,15.713c4.82,13.08,7.584,31.404,7.584,50.274c0,20.126-3.123,39.497-8.569,53.146    c-2.913,7.304-4.841,16.423-5.616,26.344h-7.583c-0.75-9.94-2.676-19.067-5.614-26.367c-5.477-13.609-8.618-32.973-8.618-53.123    C341,157.118,343.765,138.795,348.584,125.714z M315.108,225.467c-14.049-12.861-22.107-30.896-22.107-49.48    c0.001-26.285,15.457-49.023,37.755-59.625c-0.316,0.791-0.629,1.599-0.938,2.436C324.132,134.23,321,154.54,321,175.988    c0,22.612,3.668,44.696,10.064,60.59c2.024,5.029,3.435,11.63,4.094,18.9h-3.435C329.642,244.055,323.85,233.47,315.108,225.467z     M332.501,345.99V314h52.998v31.989H332.501z M385.499,294h-52.998v-18.522h13.081h26.848h13.069V294z M403.025,225.493    c-8.673,8.01-14.473,18.588-16.632,29.984h-3.5c0.683-7.271,2.101-13.883,4.116-18.934c6.35-15.917,9.992-37.989,9.992-60.557    c0-21.448-3.131-41.758-8.818-57.189c-0.308-0.837-0.622-1.645-0.938-2.436c22.297,10.603,37.753,33.341,37.753,59.626    C424.998,194.551,416.989,212.595,403.025,225.493z" fill="#055755" data-original="#000000" style="" class=""/>
	</g>
</g>
<g xmlns="http://www.w3.org/2000/svg">
	<g>
		<path d="M216.668,88.99H88c-5.523,0-10,4.478-10,10c0,5.522,4.477,10,10,10h128.668c5.523,0,10-4.478,10-10    C226.668,93.467,222.191,88.99,216.668,88.99z" fill="#055755" data-original="#000000" style="" class=""/>
	</g>
</g>
<g xmlns="http://www.w3.org/2000/svg">
	<g>
		<path d="M216.668,137.021H88c-5.523,0-10,4.478-10,10c0,5.522,4.477,10,10,10h128.668c5.523,0,10-4.478,10-10    C226.668,141.499,222.191,137.021,216.668,137.021z" fill="#055755" data-original="#000000" style="" class=""/>
	</g>
</g>
<g xmlns="http://www.w3.org/2000/svg">
	<g>
		<path d="M216.668,185.053H88c-5.523,0-10,4.478-10,10c0,5.522,4.477,10,10,10h128.668c5.523,0,10-4.478,10-10    C226.668,189.532,222.191,185.053,216.668,185.053z" fill="#055755" data-original="#000000" style="" class=""/>
	</g>
</g>
<g xmlns="http://www.w3.org/2000/svg">
	<g>
		<path d="M216.668,233.084H88c-5.523,0-10,4.478-10,10c0,5.522,4.477,10,10,10h128.668c5.523,0,10-4.478,10-10    C226.668,237.563,222.191,233.084,216.668,233.084z" fill="#055755" data-original="#000000" style="" class=""/>
	</g>
</g>
<g xmlns="http://www.w3.org/2000/svg">
	<g>
		<path d="M216.668,281.116H88c-5.523,0-10,4.478-10,10c0,5.522,4.477,10,10,10h128.668c5.523,0,10-4.478,10-10    C226.668,285.594,222.191,281.116,216.668,281.116z" fill="#055755" data-original="#000000" style="" class=""/>
	</g>
</g>
<g xmlns="http://www.w3.org/2000/svg">
	<g>
		<path d="M216.668,329.147h-43.001c-5.523,0-10,4.478-10,10c0,5.522,4.477,10,10,10h43.001c5.523,0,10-4.478,10-10    C226.668,333.625,222.191,329.147,216.668,329.147z" fill="#055755" data-original="#000000" style="" class=""/>
	</g>
</g>
<g xmlns="http://www.w3.org/2000/svg">
</g>
<g xmlns="http://www.w3.org/2000/svg">
</g>
<g xmlns="http://www.w3.org/2000/svg">
</g>
<g xmlns="http://www.w3.org/2000/svg">
</g>
<g xmlns="http://www.w3.org/2000/svg">
</g>
<g xmlns="http://www.w3.org/2000/svg">
</g>
<g xmlns="http://www.w3.org/2000/svg">
</g>
<g xmlns="http://www.w3.org/2000/svg">
</g>
<g xmlns="http://www.w3.org/2000/svg">
</g>
<g xmlns="http://www.w3.org/2000/svg">
</g>
<g xmlns="http://www.w3.org/2000/svg">
</g>
<g xmlns="http://www.w3.org/2000/svg">
</g>
<g xmlns="http://www.w3.org/2000/svg">
</g>
<g xmlns="http://www.w3.org/2000/svg">
</g>
<g xmlns="http://www.w3.org/2000/svg">
</g>
</g></svg>
