<svg id="Layer_1" enable-background="new 0 0 480.07 480.07" height="512" viewBox="0 0 480.07 480.07" width="512" xmlns="http://www.w3.org/2000/svg"><path d="m285.15 367.69c-.208 0-45.858-15.914-45.98-15.96-20.037-7.506-33.61-27.792-33.61-50.09 35.82-14.9 61-50.23 61-91.44v-3.13h1c13.807 0 25-11.193 25-25v-54.11c0-15.085 5.627-29.612 15.732-40.727 1.113-1.224 1.224-3.041.311-4.42-17.72-26.74-44.827-42.116-73.982-45.233-3.704-.398-4.427-5.474-.983-6.892l3.564-1.469c2.941-1.211 2.985-5.385.057-6.626-48.875-20.717-114.643-22.999-156.499 17.347-36.86 35.53-37.52 86.56-37.2 101.03v41.1c0 13.81 11.19 25 25 25v3.13c0 41.21 25.18 76.54 61 91.44 0 20.808-12.035 40.538-32.263 49.514-3.378 1.499-47.151 16.35-47.346 16.546-21.78 7.55-36.39 28.08-36.39 51.14v45.23c0 4.42 3.58 8 8 8h292c4.42 0 8-3.58 8-8v-45.23c-.001-23.07-14.621-43.6-36.411-51.15z" fill="#ffebd2"/><path d="m308.602 82.813c.914 1.379.802 3.196-.311 4.42-10.104 11.115-15.732 25.642-15.732 40.727v54.11c0 12.943-9.98 25-26 25v-44.059c0-4.69-4.017-8.394-8.687-7.97-48.891 4.438-97.214-8.235-137.52-36.278-3.92-2.728-9.363-1.491-11.617 2.719-8.099 15.126-20.56 25.473-34.956 30.87-3.135 1.175-5.22 4.152-5.22 7.5v47.219c-13.81 0-25-11.19-25-25v-41.1c-.32-14.47.34-65.5 37.2-101.03 41.857-40.347 107.625-38.065 156.5-17.347 2.928 1.241 2.884 5.415-.057 6.626l-3.564 1.469c-3.444 1.418-2.721 6.495.983 6.892 29.154 3.123 56.261 18.493 73.981 45.232z" fill="#585966"/><path d="m321.56 418.84v45.23c0 4.418-3.582 8-8 8h-292c-4.418 0-8-3.582-8-8v-45.23c0-23.06 14.61-43.59 36.39-51.14.071-.073 44.661-15.406 46-15.97 5.05-2.044 9.747-4.864 13.93-8.33 2.53 3.15 22.91 27.67 57.68 27.67s55.149-24.519 57.679-27.669c4.179 3.462 8.875 6.283 13.931 8.329 2.154.907 45.879 15.96 45.98 15.96 21.79 7.55 36.41 28.08 36.41 51.15z" fill="#80aaff"/><path d="m126.198 358.124c5.323 3.608 4.443 11.714-1.544 14.062-8.75 3.431-44.424 15.227-44.704 15.515-21.78 7.55-36.39 28.08-36.39 51.14v25.23c0 4.418-3.582 8-8 8h-14c-4.418 0-8-3.582-8-8v-45.23c0-23.06 14.61-43.59 36.39-51.14 0 0 .01-.01.03-.01 45.598-15.861 49.93-16.029 59.9-24.29 1.246 1.553 6.824 8.287 16.318 14.723z" fill="#9cbcff"/><path d="m455.32 324.99c13.15 4.11 15.24 21.87 3.44 28.97-34.2 20.59-79.5 2.8-139.2 45.11v-135c70.68-4.23 70.98 40.68 135.76 60.92z" fill="#ff8c95"/><path d="m219.56 452.07v20h-104v-20c0-8.84 7.16-16 16-16h72c8.84 0 16 7.16 16 16z" fill="#cbe3fa"/><path d="m204.101 446.07h-52.541c-8.837 0-16 7.163-16 16v5.005c0 2.759-2.236 4.995-4.995 4.995h-15.005v-20c0-8.837 7.163-16 16-16 0 0 72.67.01 73 .031 6.349.391 5.902 9.969-.459 9.969z" fill="#eef7ff"/><path d="m458.76 353.96c-34.2 20.59-79.5 2.8-139.2 45.11v-35.64c35.335-1.49 65.609-22.059 78.473-58.008 1.801-5.033 7.989-6.871 12.271-3.671 11.568 8.644 25.305 17.08 45.016 23.239 13.15 4.11 15.24 21.87 3.44 28.97z" fill="#ff6d7a"/><path d="m237.202 29.219-3.564 1.469c-22.156 9.037-68.648-7.377-112.878 35.252-24.977 24.073-33.331 55.26-36.023 77.37-.318 2.613-1.917 4.912-4.264 6.103-2.339 1.188-4.589 2.15-6.692 2.938-3.13 1.18-5.22 4.16-5.22 7.5v47.219c-13.81 0-25-11.19-25-25v-41.1c-.32-14.47.34-65.5 37.2-101.03 41.859-40.35 107.618-38.056 156.498-17.346 2.929 1.25 2.883 5.415-.057 6.625z" fill="#6e6f80"/><path d="m170.807 287.367c12.629 3.188 10.567 21.727-2.458 21.83-54.885.432-99.789-43.915-99.789-98.997v-50.349c0-3.34 2.09-6.32 5.22-7.5 2.043-.765 4.044-1.63 5.997-2.591 7.28-3.583 15.783 1.879 15.798 9.993.014 7.366.001 17.482-.016 31.447-.059 48.285 33.571 85.646 75.248 96.167z" fill="#fff3e4"/><path d="m201.188 319.383c-21.299 7.719-45.588 7.818-67.249-.052-3.592-1.305-5.746-5.014-5.12-8.784.74-4.459.648-7.601.744-8.937 24.503 10.22 52.069 10.011 76 .05 0 3.032.249 6.023.737 8.947.629 3.769-1.521 7.475-5.112 8.776z" fill="#ffdfba"/><g><path d="m151.56 199.07v-14c0-4.418-3.582-8-8-8s-8 3.582-8 8v14c0 4.418 3.582 8 8 8s8-3.581 8-8z"/><path d="m201.56 199.07v-14c0-4.418-3.582-8-8-8s-8 3.582-8 8v14c0 4.418 3.582 8 8 8s8-3.581 8-8z"/><path d="m316.838 80.829c-16.287-26.174-40.303-42.208-66.78-48.663 4.437-3.745 3.523-10.815-1.688-13.323-55.274-26.609-128.146-28.055-173.162 15.338-37.074 35.735-40.086 86.577-39.648 106.877v41.012c0 15.466 10.696 28.474 25.078 32.032.942 26.207 11.335 50.925 29.522 69.973 3.052 3.196 8.116 3.313 11.311.262s3.313-8.115.262-11.311c-16.232-17.001-25.172-39.315-25.172-62.831v-50.338c16.557-6.194 30.403-18.099 39.203-34.539 41.649 29.007 91.79 42.272 142.797 37.689v47.188c0 63.344-63.891 108.987-125.927 84.058-5.326-2.14-11.118 1.755-11.074 7.445-.025 19.655-12.516 37.158-31.102 43.566l-43.103 14.862c-25.005 8.665-41.795 32.248-41.795 58.717v53.227c0 4.418 3.582 8 8 8s8-3.582 8-8v-53.227c0-19.678 12.499-37.209 31.103-43.624.01-.003 40.204-13.863 40.204-13.863l46.034 66.713h-7.341c-13.233 0-24 10.767-24 24v20c0 4.418 3.582 8 8 8s8-3.582 8-8v-20c0-4.411 3.589-8 8-8h72c4.411 0 8 3.589 8 8v20c0 4.418 3.582 8 8 8s8-3.582 8-8v-20c0-13.233-10.767-24-24-24h-7.341l16.876-24.457c2.509-3.636 1.595-8.619-2.041-11.128-3.638-2.509-8.619-1.597-11.129 2.041l-23.146 33.543h-18.438l-50.617-73.356c15.147-9.221 25.696-24.557 28.846-42.076 20.034 6.063 41.767 6.102 61.977-.024 2.11 11.763 7.553 22.542 15.487 31.151-21.008 20.251-49.194 24.051-72.365 13.838-4.038-1.782-8.766.05-10.547 4.093-1.782 4.043.051 8.765 4.094 10.547 30.071 13.258 65.652 7.224 91.125-18.173 4.046 2.575 8.432 4.708 13.106 6.32 46.559 16.053 43.765 15.296 45.757 15.296 8.288 0 11.614-11.715 2.553-15.531.034-.1 1.802.589-43.094-14.891-17.004-5.863-28.902-21.015-30.823-38.604 35.892-17.289 60.72-54.031 60.72-96.464v-56.124c0-4.826-4.253-8.567-9.052-7.931-52.144 6.916-105.137-6.504-148.082-39.419-4.249-3.259-10.453-1.493-12.35 3.52-6.74 17.83-20.58 30.988-38.702 36.134-3.44.977-5.814 4.119-5.814 7.696v42.992c-5.35-2.867-9-8.509-9-14.992 0 0-.001-41.218-.002-41.277-.401-18.132 2.182-63.696 34.754-95.093 36.391-35.078 93.331-35.094 137.602-19.662l-6.399 2.634c-3.384 1.393-5.392 4.906-4.874 8.529.519 3.624 3.429 6.434 7.068 6.823l14.062 1.506c27.066 2.898 51 17.01 66.332 38.941-10.063 12.229-15.542 27.45-15.542 43.488v54.11c0 4.418 3.582 8 8 8s8-3.582 8-8v-54.11c0-13.908 5.372-27.014 15.126-36.902 2.608-2.645 3.111-7.079 1.151-10.228z"/><path d="m457.708 317.358c-60.25-18.824-63.796-62.009-130.148-61.557v-6.731c0-4.418-3.582-8-8-8s-8 3.582-8 8v223c0 4.418 3.582 8 8 8s8-3.582 8-8v-200.27c59.101-.488 61.295 40.809 125.377 60.831 6.572 2.053 7.57 10.938 1.697 14.474-23.4 14.087-55.128 8.465-94.919 22.18-4.177 1.44-6.396 5.993-4.956 10.17 1.445 4.191 6.005 6.391 10.171 4.957 38.307-13.204 70.53-7.088 97.956-23.6 17.7-10.655 14.565-37.287-5.178-43.454z"/></g></svg>