<svg id="Layer_1" data-name="Layer 1" xmlns="http://www.w3.org/2000/svg" viewBox="0 0 512 448"><defs><style>.cls-1{fill:#fc0;}</style></defs><path class="cls-1" d="M394.67,64a10.78,10.78,0,0,0-7.56,3.11L280.45,173.78A10.68,10.68,0,0,0,288,192h53.33V298.67A21.36,21.36,0,0,0,362.67,320h64A21.36,21.36,0,0,0,448,298.67V192h53.33a10.68,10.68,0,0,0,7.56-18.22L402.22,67.11A10.74,10.74,0,0,0,394.67,64ZM313.75,170.67l80.92-80.92,80.91,80.92H437.33a10.67,10.67,0,0,0-10.66,10.66V298.67h-64V181.33A10.67,10.67,0,0,0,352,170.67Z" transform="translate(0 -64)"/><path class="cls-1" d="M245.33,128h-192A53.39,53.39,0,0,0,0,181.33V458.67A53.39,53.39,0,0,0,53.33,512H458.67A53.39,53.39,0,0,0,512,458.67V245.33a10.67,10.67,0,0,0-21.33,0V458.67a32,32,0,0,1-32,32H53.33a32,32,0,0,1-32-32V181.33a32,32,0,0,1,32-32h192a10.67,10.67,0,1,0,0-21.33Z" transform="translate(0 -64)"/><path class="cls-1" d="M160,234.67H10.67A10.67,10.67,0,0,0,0,245.33V394.67a10.67,10.67,0,0,0,10.67,10.66H160A53.39,53.39,0,0,0,213.33,352V288A53.39,53.39,0,0,0,160,234.67ZM21.33,256H160a32,32,0,0,1,32,32v64a32,32,0,0,1-32,32H21.33Z" transform="translate(0 -64)"/><path class="cls-1" d="M106.67,277.33A42.67,42.67,0,1,0,149.33,320,42.72,42.72,0,0,0,106.67,277.33Zm0,64A21.33,21.33,0,1,1,128,320,21.36,21.36,0,0,1,106.67,341.33Z" transform="translate(0 -64)"/></svg>