<?xml version="1.0"?>
<svg xmlns="http://www.w3.org/2000/svg" xmlns:xlink="http://www.w3.org/1999/xlink" xmlns:svgjs="http://svgjs.com/svgjs" version="1.1" width="512" height="512" x="0" y="0" viewBox="0 0 512 512" style="enable-background:new 0 0 512 512" xml:space="preserve" class=""><g><g xmlns="http://www.w3.org/2000/svg"><path d="m416.65 74.848c-2.262-3.469-6.909-4.449-10.379-2.186l-18.7 12.194-31.838-6.21 26.866-21.677c3.224-2.601 3.729-7.323 1.127-10.546-2.601-3.224-7.321-3.729-10.547-1.127l-36.684 29.598-24.42-4.763c-4.064-.795-8.004 1.86-8.797 5.926s1.86 8.004 5.926 8.797l24.42 4.763 22.873 41.215c1.37 2.469 3.928 3.862 6.564 3.862 1.231 0 2.479-.304 3.633-.944 3.621-2.01 4.928-6.575 2.918-10.197l-16.752-30.183 31.839 6.21 12.747 18.328c1.457 2.096 3.791 3.218 6.164 3.218 1.478 0 2.971-.436 4.275-1.343 3.4-2.365 4.24-7.039 1.875-10.439l-10.071-14.481 14.775-9.635c3.47-2.263 4.449-6.91 2.186-10.38z" fill="#808080" data-original="#000000" style=""/><path d="m376.813 155.896c-4.067-.792-8.004 1.861-8.797 5.926l-7.88 40.403c-.793 4.065 1.86 8.004 5.926 8.797.484.095.968.14 1.443.14 3.517 0 6.655-2.485 7.354-6.066l7.88-40.403c.793-4.066-1.861-8.004-5.926-8.797z" fill="#808080" data-original="#000000" style=""/><path d="m401.62 210.315 7.88-40.402c.793-4.065-1.86-8.004-5.926-8.797-4.063-.794-8.005 1.86-8.797 5.926l-7.88 40.402c-.793 4.065 1.86 8.004 5.926 8.797.484.095.968.14 1.443.14 3.517 0 6.655-2.485 7.354-6.066z" fill="#808080" data-original="#000000" style=""/><path d="m419.583 221.46c.484.095.968.14 1.443.14 3.517 0 6.655-2.485 7.354-6.066l7.88-40.402c.793-4.065-1.86-8.004-5.926-8.797-4.067-.792-8.004 1.86-8.797 5.926l-7.88 40.402c-.792 4.065 1.861 8.004 5.926 8.797z" fill="#808080" data-original="#000000" style=""/><path d="m364.827 423.937c.484.095.968.14 1.443.14 3.517 0 6.655-2.484 7.354-6.065l24.319-124.688c.793-4.065-1.86-8.004-5.926-8.797-4.065-.792-8.004 1.86-8.797 5.926l-24.319 124.687c-.793 4.066 1.86 8.004 5.926 8.797z" fill="#808080" data-original="#000000" style=""/><path d="m164.588 179.585c-45.189 0-81.953 36.764-81.953 81.954s36.764 81.954 81.953 81.954 81.954-36.765 81.954-81.954-36.764-81.954-81.954-81.954zm0 148.908c-2.273 0-7.246-4.479-11.627-16.816-2.261-6.368-4.029-13.785-5.263-21.874 5.491.353 11.143.54 16.89.54s11.4-.187 16.891-.54c-1.234 8.089-3.002 15.506-5.263 21.874-4.381 12.337-9.354 16.816-11.628 16.816zm0-53.151c-6.318 0-12.533-.238-18.513-.69-.278-4.276-.425-8.659-.425-13.113 0-4.455.147-8.837.425-13.113 5.98-.452 12.195-.69 18.513-.69 6.319 0 12.534.238 18.514.69.278 4.276.425 8.658.425 13.113s-.147 8.837-.425 13.113c-5.98.452-12.195.69-18.514.69zm-66.808-13.803c1.064-1.487 5.938-5.25 18.966-8.596 4.342-1.115 9.121-2.059 14.21-2.829-.204 3.79-.306 7.609-.306 11.424s.102 7.635.306 11.425c-5.089-.77-9.869-1.714-14.21-2.829-13.03-3.344-17.902-7.108-18.966-8.595zm66.808-66.954c2.273 0 7.247 4.479 11.628 16.817 2.261 6.368 4.029 13.785 5.263 21.874-5.492-.353-11.144-.54-16.891-.54s-11.399.188-16.89.54c1.234-8.089 3.002-15.506 5.263-21.874 4.381-12.338 9.354-16.817 11.627-16.817zm33.634 55.529c5.089.77 9.869 1.714 14.21 2.829 13.028 3.345 17.901 7.108 18.966 8.596-1.064 1.487-5.938 5.251-18.966 8.596-4.341 1.115-9.121 2.059-14.21 2.829.204-3.79.306-7.61.306-11.425s-.103-7.635-.306-11.425zm30.555-7.587c-2.828-1.173-5.982-2.262-9.479-3.263-6.643-1.901-14.253-3.412-22.489-4.502-1.826-13.834-5.097-26.559-9.769-36.293 20.017 7.148 35.656 23.564 41.737 44.058zm-86.64-44.057c-4.672 9.734-7.942 22.459-9.768 36.293-8.236 1.091-15.846 2.602-22.489 4.502-3.497 1-6.651 2.09-9.479 3.263 6.081-20.495 21.719-36.911 41.736-44.058zm-41.736 82.08c2.828 1.173 5.982 2.262 9.479 3.263 6.643 1.901 14.253 3.412 22.489 4.503 1.826 13.834 5.096 26.559 9.768 36.293-20.017-7.148-35.655-23.564-41.736-44.059zm86.639 44.058c4.672-9.734 7.943-22.459 9.769-36.293 8.236-1.09 15.846-2.602 22.489-4.503 3.497-1 6.651-2.09 9.479-3.263-6.081 20.496-21.72 36.912-41.737 44.059z" fill="#808080" data-original="#000000" style=""/><path d="m244.069 398.389v-27.52c0-8.346-6.789-15.135-15.135-15.135h-128.69c-8.346 0-15.135 6.789-15.135 15.135v27.52c0 8.346 6.789 15.135 15.135 15.135h128.69c8.346 0 15.135-6.789 15.135-15.135zm-143.96 0v-27.52c0-.074.061-.135.135-.135h128.69c.074 0 .135.061.135.135v27.52c0 .074-.061.135-.135.135h-128.69c-.075 0-.135-.06-.135-.135z" fill="#808080" data-original="#000000" style=""/><path d="m224.788 437.909c0-4.143-3.357-7.5-7.5-7.5h-105.398c-4.143 0-7.5 3.357-7.5 7.5s3.357 7.5 7.5 7.5h105.397c4.143 0 7.501-3.358 7.501-7.5z" fill="#808080" data-original="#000000" style=""/><path d="m141.89 462.293c-4.143 0-7.5 3.357-7.5 7.5s3.357 7.5 7.5 7.5h45.397c4.143 0 7.5-3.357 7.5-7.5s-3.357-7.5-7.5-7.5z" fill="#808080" data-original="#000000" style=""/><path d="m479.65 35.678-20.035-3.908c-4.066-.794-8.004 1.861-8.797 5.926s1.86 8.004 5.926 8.797l20.035 3.908c3.107.606 5.142 3.627 4.536 6.734l-84.781 434.686c-.607 3.107-3.634 5.141-6.734 4.537l-76.198-14.862v-25.538l17.748 3.462c1.939.38 3.975-.027 5.625-1.141 1.65-1.111 2.791-2.833 3.172-4.785l29.917-153.394c.793-4.065-1.86-8.004-5.926-8.797s-8.004 1.86-8.797 5.926l-28.482 146.032-13.258-2.586v-198.172l50.493 9.848-3.006 15.414c-.793 4.065 1.86 8.004 5.926 8.797.485.095.968.14 1.443.14 3.517 0 6.655-2.484 7.354-6.065l4.441-22.775c.793-4.065-1.86-8.004-5.926-8.797l-60.726-11.844v-78.501c0-4.142-3.357-7.5-7.5-7.5h-40.723l23.713-121.575c.606-3.106 3.621-5.147 6.734-4.537l131.486 25.645c4.071.798 8.004-1.86 8.797-5.926.793-4.065-1.86-8.004-5.926-8.797l-131.485-25.645c-11.219-2.188-22.138 5.162-24.328 16.388l-24.273 124.447h-200.634c-18.685 0-33.885 15.201-33.885 33.885v247.81c0 4.143 3.357 7.5 7.5 7.5s7.5-3.357 7.5-7.5v-247.81c0-10.413 8.472-18.885 18.885-18.885h249.14v340.78h-249.14c-10.413 0-18.885-8.472-18.885-18.886v-25.212c0-4.143-3.357-7.5-7.5-7.5s-7.5 3.357-7.5 7.5v25.212c0 18.685 15.2 33.886 33.885 33.886h256.64c4.143 0 7.5-3.357 7.5-7.5v-7.721l73.327 14.302c1.336.261 2.664.386 3.977.386 9.72 0 18.422-6.884 20.352-16.773l84.781-434.687c2.188-11.226-5.164-22.14-16.388-24.329z" fill="#808080" data-original="#000000" style=""/></g></g></svg>
