<?xml version="1.0"?>
<svg xmlns="http://www.w3.org/2000/svg" xmlns:xlink="http://www.w3.org/1999/xlink" xmlns:svgjs="http://svgjs.com/svgjs" version="1.1" width="512" height="512" x="0" y="0" viewBox="0 0 512.002 512.002" style="enable-background:new 0 0 512 512" xml:space="preserve" class=""><g>
<g xmlns="http://www.w3.org/2000/svg">
	<g>
		<path d="M400.003,152H256.001c-5.522,0-10,4.477-10,10s4.478,10,10,10h144.002c5.522,0,10-4.477,10-10S405.525,152,400.003,152z" fill="#212529" data-original="#000000" style="" class=""/>
	</g>
</g>
<g xmlns="http://www.w3.org/2000/svg">
	<g>
		<path d="M407.07,202.93c-1.859-1.86-4.439-2.93-7.069-2.93s-5.21,1.07-7.07,2.93c-1.861,1.86-2.93,4.44-2.93,7.07    s1.07,5.21,2.93,7.07c1.86,1.86,4.44,2.93,7.07,2.93s5.21-1.07,7.069-2.93c1.87-1.86,2.931-4.44,2.931-7.07    S408.94,204.79,407.07,202.93z" fill="#212529" data-original="#000000" style="" class=""/>
	</g>
</g>
<g xmlns="http://www.w3.org/2000/svg">
	<g>
		<path d="M263.06,56.93c-1.859-1.86-4.439-2.93-7.069-2.93c-2.631,0-5.211,1.07-7.07,2.93c-1.861,1.86-2.93,4.44-2.93,7.07    s1.07,5.21,2.93,7.07c1.859,1.86,4.439,2.93,7.07,2.93c2.63,0,5.21-1.07,7.069-2.93c1.861-1.86,2.931-4.44,2.931-7.07    S264.92,58.79,263.06,56.93z" fill="#212529" data-original="#000000" style="" class=""/>
	</g>
</g>
<g xmlns="http://www.w3.org/2000/svg">
	<g>
		<path d="M357.94,200H256.001c-5.522,0-10,4.477-10,10s4.478,10,10,10H357.94c5.523,0,10-4.477,10-10S363.462,200,357.94,200z" fill="#212529" data-original="#000000" style="" class=""/>
	</g>
</g>
<g xmlns="http://www.w3.org/2000/svg">
	<g>
		<path d="M400.003,260H256.001c-5.522,0-10,4.477-10,10s4.478,10,10,10h144.002c5.522,0,10-4.477,10-10S405.525,260,400.003,260z" fill="#212529" data-original="#000000" style="" class=""/>
	</g>
</g>
<g xmlns="http://www.w3.org/2000/svg">
	<g>
		<path d="M407.07,310.93c-1.859-1.86-4.439-2.93-7.069-2.93s-5.21,1.07-7.07,2.93c-1.861,1.86-2.93,4.44-2.93,7.07    s1.07,5.21,2.93,7.07c1.86,1.86,4.44,2.93,7.07,2.93s5.21-1.07,7.069-2.93c1.87-1.86,2.931-4.44,2.931-7.07    S408.94,312.79,407.07,310.93z" fill="#212529" data-original="#000000" style="" class=""/>
	</g>
</g>
<g xmlns="http://www.w3.org/2000/svg">
	<g>
		<path d="M357.94,308H256.001c-5.522,0-10,4.477-10,10s4.478,10,10,10H357.94c5.523,0,10-4.477,10-10S363.462,308,357.94,308z" fill="#212529" data-original="#000000" style="" class=""/>
	</g>
</g>
<g xmlns="http://www.w3.org/2000/svg">
	<g>
		<path d="M400.003,368H256.001c-5.522,0-10,4.477-10,10s4.478,10,10,10h144.002c5.522,0,10-4.477,10-10S405.525,368,400.003,368z" fill="#212529" data-original="#000000" style="" class=""/>
	</g>
</g>
<g xmlns="http://www.w3.org/2000/svg">
	<g>
		<path d="M407.07,418.93c-1.859-1.86-4.439-2.93-7.069-2.93s-5.21,1.07-7.07,2.93c-1.861,1.86-2.93,4.44-2.93,7.07    s1.07,5.21,2.93,7.07c1.86,1.86,4.44,2.93,7.07,2.93s5.21-1.07,7.069-2.93c1.87-1.86,2.931-4.44,2.931-7.07    S408.94,420.79,407.07,418.93z" fill="#212529" data-original="#000000" style="" class=""/>
	</g>
</g>
<g xmlns="http://www.w3.org/2000/svg">
	<g>
		<path d="M357.94,416H256.001c-5.522,0-10,4.477-10,10s4.478,10,10,10H357.94c5.523,0,10-4.477,10-10S363.462,416,357.94,416z" fill="#212529" data-original="#000000" style="" class=""/>
	</g>
</g>
<g xmlns="http://www.w3.org/2000/svg">
	<g>
		<path d="M408.001,54H361.98v-4c0-11.028-8.972-20-20-20h-47.245c-4.451-17.233-20.13-30-38.734-30s-34.283,12.767-38.734,30    h-47.266c-11.028,0-20,8.972-20,20v4h-46c-27.57,0-50,22.43-50,50v358.002c0,27.57,22.43,50,50,50h304c27.57,0,50-22.43,50-50V104    C458.001,76.43,435.571,54,408.001,54z M170.001,50h56c5.522,0,10-4.477,10-10c0-11.028,8.972-20,20-20c11.028,0,20,8.972,20,20    c0,5.523,4.478,10,10,10h55.979v36H170.001V50z M438.001,462.002c0,16.542-13.458,30-30,30h-304c-16.542,0-30-13.458-30-30V104    c0-16.542,13.458-30,30-30h46v12c0,11.028,8.972,20,20,20H341.98c11.028,0,20-8.972,20-20V74h46.021c16.542,0,30,13.458,30,30    V462.002z" fill="#212529" data-original="#000000" style="" class=""/>
	</g>
</g>
<g xmlns="http://www.w3.org/2000/svg">
	<g>
		<path d="M192.41,149.597c-3.903-3.907-10.233-3.906-14.141-0.002l-42.763,42.763l-13.173-13.173    c-3.905-3.905-10.235-3.905-14.143,0c-3.905,3.905-3.905,10.237,0,14.142l20.244,20.245c1.875,1.875,4.419,2.929,7.071,2.929    s5.195-1.054,7.071-2.929l49.834-49.833C196.315,159.834,196.315,153.502,192.41,149.597z" fill="#212529" data-original="#000000" style="" class=""/>
	</g>
</g>
<g xmlns="http://www.w3.org/2000/svg">
	<g>
		<path d="M191.361,282.423c-1.174-3.622-4.303-6.261-8.07-6.809l-20.949-3.05l-9.364-18.987c-1.684-3.414-5.159-5.576-8.966-5.577    h-0.003c-3.805,0-7.281,2.16-8.966,5.572l-9.375,18.982l-20.952,3.039c-3.767,0.546-6.897,3.184-8.074,6.804    s-0.197,7.594,2.528,10.252l15.155,14.781l-3.584,20.866c-0.645,3.751,0.896,7.543,3.976,9.781    c3.079,2.239,7.161,2.535,10.531,0.764l18.741-9.847l18.735,9.856c1.465,0.77,3.063,1.15,4.655,1.15    c2.072,0,4.135-0.644,5.877-1.908c3.08-2.236,4.623-6.028,3.98-9.779l-3.572-20.867l15.164-14.773    C191.555,290.017,192.536,286.043,191.361,282.423z M155.942,296.789c-2.357,2.296-3.434,5.606-2.878,8.85l1.04,6.078    l-5.456-2.871c-1.458-0.767-3.057-1.15-4.656-1.15c-1.598,0-3.195,0.382-4.651,1.147l-5.458,2.868l1.044-6.077    c0.558-3.244-0.518-6.555-2.874-8.853l-4.413-4.305l6.102-0.885c3.257-0.473,6.073-2.517,7.53-5.468l2.73-5.529l2.728,5.53    c1.456,2.952,4.271,4.998,7.528,5.472l6.102,0.888L155.942,296.789z" fill="#212529" data-original="#000000" style="" class=""/>
	</g>
</g>
<g xmlns="http://www.w3.org/2000/svg">
	<g>
		<path d="M191.361,390.423c-1.174-3.622-4.303-6.261-8.07-6.809l-20.949-3.05l-9.364-18.987c-1.684-3.414-5.159-5.576-8.966-5.577    h-0.003c-3.805,0-7.281,2.16-8.966,5.572l-9.375,18.982l-20.952,3.039c-3.767,0.546-6.897,3.184-8.074,6.804    s-0.197,7.594,2.528,10.252l15.155,14.781l-3.584,20.866c-0.645,3.751,0.896,7.543,3.976,9.781    c3.079,2.239,7.161,2.535,10.531,0.764l18.741-9.847l18.735,9.856c1.465,0.77,3.063,1.15,4.655,1.15    c2.072,0,4.135-0.644,5.877-1.908c3.08-2.236,4.623-6.028,3.98-9.779l-3.572-20.867l15.164-14.773    C191.555,398.017,192.536,394.043,191.361,390.423z M155.942,404.789c-2.357,2.296-3.434,5.606-2.878,8.85l1.04,6.078    l-5.456-2.871c-1.458-0.767-3.057-1.15-4.656-1.15c-1.598,0-3.195,0.382-4.651,1.147l-5.458,2.868l1.044-6.077    c0.558-3.244-0.518-6.555-2.874-8.853l-4.413-4.305l6.102-0.885c3.257-0.473,6.073-2.517,7.53-5.468l2.73-5.529l2.728,5.53    c1.456,2.952,4.271,4.998,7.528,5.472l6.102,0.888L155.942,404.789z" fill="#212529" data-original="#000000" style="" class=""/>
	</g>
</g>
<g xmlns="http://www.w3.org/2000/svg">
</g>
<g xmlns="http://www.w3.org/2000/svg">
</g>
<g xmlns="http://www.w3.org/2000/svg">
</g>
<g xmlns="http://www.w3.org/2000/svg">
</g>
<g xmlns="http://www.w3.org/2000/svg">
</g>
<g xmlns="http://www.w3.org/2000/svg">
</g>
<g xmlns="http://www.w3.org/2000/svg">
</g>
<g xmlns="http://www.w3.org/2000/svg">
</g>
<g xmlns="http://www.w3.org/2000/svg">
</g>
<g xmlns="http://www.w3.org/2000/svg">
</g>
<g xmlns="http://www.w3.org/2000/svg">
</g>
<g xmlns="http://www.w3.org/2000/svg">
</g>
<g xmlns="http://www.w3.org/2000/svg">
</g>
<g xmlns="http://www.w3.org/2000/svg">
</g>
<g xmlns="http://www.w3.org/2000/svg">
</g>
</g></svg>
